<?xml version="1.0" standalone="no"?>
<!DOCTYPE svg PUBLIC "-//W3C//DTD SVG 20010904//EN"
 "http://www.w3.org/TR/2001/REC-SVG-20010904/DTD/svg10.dtd">
<svg version="1.0" xmlns="http://www.w3.org/2000/svg"
 width="401.000000pt" height="384.000000pt" viewBox="0 0 401.000000 384.000000"
 preserveAspectRatio="xMidYMid meet">

<g transform="translate(0.000000,384.000000) scale(0.100000,-0.100000)"
fill="#000000" stroke="none">
<path d="M543 3705 c-82 -22 -166 -69 -231 -130 -71 -65 -115 -131 -151 -223
l-26 -67 -3 -1348 c-3 -1495 -6 -1409 64 -1549 43 -85 141 -188 221 -231 28
-15 86 -36 129 -47 75 -19 115 -20 1418 -20 1160 0 1350 2 1405 15 208 49 383
227 427 434 21 99 20 2644 -1 2743 -23 109 -68 191 -149 272 -80 81 -161 128
-257 151 -93 21 -2765 21 -2846 0z m1347 -445 l0 -310 55 0 c46 0 60 4 80 25
l25 24 0 286 0 285 608 0 c643 0 691 -3 778 -48 72 -37 131 -99 171 -180 l38
-76 3 -583 3 -583 -61 0 c-55 0 -65 -3 -92 -30 -25 -26 -29 -36 -24 -63 10
-50 38 -67 112 -67 l65 0 -3 -692 -3 -693 -31 -66 c-37 -78 -87 -136 -152
-177 -95 -61 -108 -62 -639 -62 l-483 0 0 221 0 221 -29 29 c-37 37 -65 37
-102 0 l-29 -29 0 -221 0 -221 -802 2 -803 3 -60 29 c-109 54 -189 156 -214
274 -7 36 -11 264 -11 717 l0 665 384 0 385 0 20 26 c28 35 26 75 -4 108 l-24
26 -381 0 -381 0 3 583 c3 577 3 582 25 637 48 117 174 219 299 239 27 5 325
9 662 10 l612 1 0 -310z"/>
<path d="M2855 3384 c-67 -34 -115 -101 -129 -176 l-7 -38 -54 0 c-30 0 -56
-3 -58 -7 -3 -5 -8 -44 -11 -88 l-7 -81 55 -23 c38 -16 72 -41 110 -81 80 -87
103 -174 75 -286 -11 -44 -11 -47 27 -102 l39 -57 246 -3 c210 -2 248 0 259
13 10 12 4 80 -30 357 -23 188 -44 346 -46 350 -3 4 -36 8 -73 8 l-68 0 -6 40
c-8 60 -52 127 -105 161 -40 25 -56 29 -116 29 -45 0 -82 -6 -101 -16z m167
-111 c20 -17 48 -72 48 -93 0 -13 -217 -14 -225 0 -10 16 21 75 51 99 34 27
93 24 126 -6z"/>
<path d="M547 3302 c-14 -15 -17 -41 -17 -146 l0 -126 28 -11 c66 -25 102 -93
82 -154 -12 -36 -71 -95 -95 -95 -12 0 -15 -22 -15 -123 0 -107 2 -126 18
-140 17 -15 69 -17 545 -17 464 0 527 2 541 16 13 12 16 40 16 138 l0 123 -40
16 c-105 41 -105 191 0 235 l40 17 0 126 c0 109 -2 128 -18 142 -17 15 -69 17
-544 17 -496 0 -526 -1 -541 -18z m383 -167 c32 -17 60 -61 60 -95 0 -29 -26
-76 -52 -94 -12 -9 -40 -16 -61 -16 -31 0 -46 7 -73 34 -28 28 -34 42 -34 76
0 34 6 48 34 76 38 38 77 44 126 19z m279 -31 c18 -23 19 -29 7 -57 -11 -26
-151 -238 -228 -347 l-18 -24 -25 24 c-14 13 -25 33 -25 44 0 25 240 385 257
386 6 0 21 -12 32 -26z m100 -248 c49 -26 65 -94 34 -146 -35 -60 -108 -67
-159 -16 -88 88 13 219 125 162z"/>
<path d="M864 3049 c-10 -17 13 -36 27 -22 12 12 4 33 -11 33 -5 0 -12 -5 -16
-11z"/>
<path d="M1244 2775 c-9 -23 10 -40 25 -22 9 11 8 17 -4 27 -12 10 -16 9 -21
-5z"/>
<path d="M2294 3060 c-27 -11 -72 -65 -80 -96 -9 -37 4 -90 31 -123 14 -16 25
-40 25 -53 0 -13 5 -29 12 -36 17 -17 47 -15 54 3 7 18 14 18 37 1 17 -13 15
-18 -24 -92 -22 -44 -60 -100 -82 -126 l-42 -48 -89 79 c-108 97 -135 110
-180 89 -17 -9 -44 -34 -60 -57 -24 -34 -28 -48 -23 -82 5 -41 4 -43 -164
-251 -92 -115 -172 -216 -177 -224 -8 -14 -14 -13 -50 11 -66 43 -120 19 -198
-88 -58 -81 -58 -107 1 -164 l46 -43 -27 -36 c-19 -25 -32 -33 -43 -28 -9 4
-42 10 -73 12 -71 5 -114 -14 -159 -71 -18 -23 -111 -137 -206 -254 -96 -117
-180 -228 -188 -247 -19 -46 -19 -136 1 -184 l15 -39 -64 -86 c-54 -71 -68
-97 -81 -155 -9 -39 -21 -83 -26 -98 -6 -15 -9 -28 -7 -30 1 -2 30 15 62 37
33 22 80 51 105 65 27 16 65 52 97 93 l52 68 53 -10 c46 -8 61 -6 113 14 58
24 62 28 253 269 107 135 202 263 213 285 26 55 24 119 -6 183 l-24 52 28 33
29 32 44 -33 c100 -76 131 -77 203 -11 24 22 46 36 49 30 10 -16 541 -439 580
-462 85 -50 216 -32 299 41 44 39 78 77 357 403 79 92 147 167 153 167 5 0 30
-15 56 -34 75 -55 95 -56 141 -7 54 56 54 90 0 143 l-40 40 25 30 c32 37 40
70 25 98 -6 11 -50 50 -98 86 -101 74 -133 81 -174 37 -14 -16 -30 -36 -35
-46 -8 -15 -24 -6 -134 76 -68 52 -148 119 -176 150 -52 55 -53 57 -53 117 0
47 5 68 20 87 47 60 46 159 -2 210 -36 38 -72 53 -132 53 -41 0 -60 5 -78 21
-22 20 -23 26 -15 59 13 47 3 86 -33 121 -23 23 -37 29 -72 28 -24 0 -52 -4
-64 -9z m301 -364 c27 -41 -3 -90 -63 -102 -28 -6 -32 -3 -38 22 -12 44 -7 67
17 87 30 24 66 22 84 -7z m-177 -307 c30 -27 152 -126 271 -219 119 -93 234
-184 256 -203 l40 -35 -24 -26 -24 -25 -26 19 c-14 11 -61 47 -104 80 -45 34
-89 60 -102 60 -33 0 -72 -36 -184 -169 -221 -264 -231 -278 -231 -323 0 -39
5 -47 63 -101 l62 -59 -37 5 c-47 7 -83 32 -298 209 -178 146 -379 305 -437
346 l-33 23 29 32 c16 18 95 113 176 212 81 99 151 184 155 189 7 7 120 -67
120 -80 0 -11 -164 -230 -235 -312 -41 -49 -75 -95 -74 -103 0 -8 24 -32 52
-54 29 -21 102 -78 162 -125 61 -48 120 -92 132 -98 27 -15 68 -15 94 -1 20
10 290 330 335 396 30 45 32 100 4 136 -11 14 -55 51 -98 83 -42 32 -96 73
-119 92 l-42 34 27 34 c15 19 29 34 31 34 2 0 28 -23 59 -51z"/>
<path d="M2767 1172 l-167 -167 0 -248 0 -248 25 -24 24 -25 375 0 c206 0 382
3 391 6 42 17 45 44 45 434 0 379 -2 398 -39 427 -12 9 -82 12 -251 13 l-235
0 -168 -168z m543 -26 c6 -8 10 -25 8 -38 -3 -23 -5 -23 -133 -23 -128 0 -130
0 -133 23 -7 49 -1 52 126 52 92 0 122 -3 132 -14z m-402 -53 c3 -38 6 -43 28
-43 23 0 25 -3 22 -37 -2 -30 -8 -39 -25 -41 -15 -2 -23 -11 -25 -30 -3 -24
-7 -27 -38 -27 -31 0 -35 3 -38 27 -3 21 -9 27 -30 30 -24 3 -27 7 -27 38 0
31 3 35 28 38 24 3 27 7 27 42 0 41 10 50 50 47 22 -2 25 -7 28 -44z m405
-224 c6 -9 7 -24 4 -33 -5 -13 -23 -16 -111 -16 -97 0 -105 2 -111 20 -13 41
10 51 113 48 74 -2 97 -7 105 -19z m-478 -79 l31 -30 29 30 c34 35 60 38 76 9
9 -18 6 -26 -22 -55 l-33 -34 32 -33 c30 -31 31 -34 16 -55 -21 -30 -41 -28
-72 8 l-26 30 -33 -32 c-27 -26 -37 -30 -51 -22 -27 18 -26 44 4 75 l28 29
-34 35 c-33 34 -33 35 -15 55 24 27 33 25 70 -10z m475 -54 c6 -8 10 -25 8
-38 -3 -22 -6 -23 -108 -23 -102 0 -105 1 -108 23 -7 48 1 52 101 52 70 0 98
-4 107 -14z"/>
<path d="M1575 1181 c-165 -76 -147 -305 28 -361 71 -22 169 14 212 78 106
162 -65 364 -240 283z"/>
<path d="M1542 760 c-142 -26 -242 -126 -242 -244 0 -35 5 -48 19 -56 27 -14
645 -14 672 0 41 23 19 135 -41 202 -58 67 -132 97 -256 102 -54 3 -123 1
-152 -4z"/>
</g>
</svg>
